<svg viewBox="0 0 68 53" fill="none" xmlns="http://www.w3.org/2000/svg">
<path d="M10 53V28H14.8929V38.5357H15.0714L19.5357 28H24.5714L19.3571 39.9286L24.8214 53H19.3929L15.1429 42.0714H14.8929V53H10Z" fill="black"/>
<path d="M39.5716 53L38.8216 49.0357H33.1787L32.4287 53H27.5716L32.393 28H39.7859L44.3573 53H39.5716ZM35.9287 32.6429L34.5359 40.9643L33.7502 45.2143H38.2145L37.393 40.9643L36.0002 32.6429H35.9287Z" fill="black"/>
<path d="M55.841 53H50.6267V44.6786L45.341 28H50.1982L52.4124 35.6071L53.1624 40H53.3053L54.0553 35.6071L56.2696 28H61.1267L55.841 44.6786V53Z" fill="black"/>
<path d="M16.8571 0L11.7857 25H5.07143L0 0H5.14286L7.10714 11.5714L8.32143 19.0714H8.53571L9.75 11.5714L11.7143 0H16.8571Z" fill="black"/>
<path d="M59.6234 4.17857L51.1592 20.8571H59.6591V25H45.9806V20.9286L54.4092 4.28571H45.9806V0H59.6234V4.17857Z" fill="black"/>
<path d="M62.2535 25V0H67.1463V25H62.2535Z" fill="black"/>
<path d="M35.6667 0H27.3334C24.294 0 21.7179 2.34414 20.2658 5.83413C20.2646 5.83682 20.2637 5.8395 20.2625 5.84219C19.4586 7.77769 19 10.0647 19 12.5C19 19.3318 22.607 25 27.3334 25H35.6667C40.393 25 44 19.3318 44 12.5C44 5.66816 40.393 0 35.6667 0ZM23.5897 20.7959C23.062 20.1316 22.5958 19.3315 22.2129 18.4247L22.8175 18.6723C23.0274 18.7583 23.2596 18.7733 23.4789 18.7153L28.0214 17.5128C28.0215 17.5131 28.0216 17.5134 28.0217 17.5137C28.0431 17.5878 28.0649 17.6615 28.0872 17.7348C28.0976 17.7691 28.1079 17.8034 28.1185 17.8375C28.1467 17.9281 28.1756 18.0181 28.2052 18.1076C28.2099 18.1219 28.2144 18.1365 28.2192 18.1508C28.2537 18.2541 28.2893 18.3564 28.3256 18.458C28.3361 18.4873 28.347 18.5163 28.3576 18.5455C28.3843 18.6187 28.4113 18.6915 28.439 18.7638C28.4521 18.798 28.4653 18.8322 28.4786 18.8662C28.506 18.9363 28.5338 19.006 28.5621 19.0752C28.5746 19.1057 28.5868 19.1363 28.5994 19.1666C28.6397 19.2634 28.6806 19.3596 28.7227 19.4547C28.723 19.4555 28.7233 19.4563 28.7237 19.4571C28.7429 19.5004 28.7627 19.543 28.7822 19.5859L23.5897 20.7959ZM23.2424 4.67388L24.5134 5.94492C24.7597 6.19121 25.1128 6.2981 25.4543 6.22978L28.7083 5.57876C28.6713 5.66299 28.6351 5.7479 28.5994 5.8335C28.5869 5.86372 28.5746 5.89424 28.5622 5.92461C28.5339 5.99395 28.506 6.06362 28.4786 6.13384C28.4653 6.16787 28.4521 6.2019 28.439 6.23613C28.4114 6.3085 28.3843 6.3814 28.3576 6.45469C28.347 6.48379 28.3361 6.5127 28.3257 6.54194C28.2893 6.6436 28.2537 6.746 28.2192 6.84932C28.2145 6.86353 28.21 6.87803 28.2053 6.89229C28.1756 6.98179 28.1467 7.07188 28.1185 7.1626C28.1079 7.19668 28.0976 7.23101 28.0872 7.26528C28.0682 7.32793 28.0493 7.39077 28.031 7.45396L24.5552 8.23032L22.4564 6.03496C22.694 5.54253 22.9575 5.08735 23.2424 4.67388ZM23.4556 10.0948C23.7078 10.3586 24.0795 10.4711 24.4356 10.3916L27.5406 9.69805C27.5392 9.70747 27.538 9.71704 27.5366 9.72647C27.5321 9.7564 27.5281 9.78657 27.5238 9.81655C27.5113 9.90317 27.4994 9.99004 27.4881 10.0773C27.483 10.117 27.4781 10.1568 27.4732 10.1967C27.4632 10.2781 27.4538 10.3599 27.4449 10.4418C27.4407 10.4801 27.4364 10.5183 27.4325 10.5566C27.422 10.6587 27.4124 10.7612 27.4035 10.8641C27.4021 10.8805 27.4003 10.8967 27.399 10.9131C27.3891 11.032 27.3805 11.1515 27.3728 11.2714C27.3709 11.3014 27.3693 11.3315 27.3675 11.3615L23.4958 12.3782L21.2623 10.0419C21.3567 9.40356 21.4868 8.78921 21.6487 8.20469L23.4556 10.0948ZM22.4139 14.2615C22.6756 14.5352 23.0652 14.6454 23.4314 14.5492L27.3606 13.5174C27.3625 13.553 27.3647 13.5885 27.3667 13.6241C27.3688 13.6589 27.3706 13.6938 27.3728 13.7286C27.3805 13.8484 27.3891 13.9679 27.399 14.0869C27.4004 14.1033 27.4021 14.1195 27.4035 14.1358C27.4123 14.2387 27.422 14.3413 27.4325 14.4434C27.4364 14.4817 27.4407 14.5199 27.4449 14.5582C27.4538 14.6401 27.4632 14.7219 27.4732 14.8033C27.4781 14.8431 27.483 14.883 27.4881 14.9227C27.4994 15.0099 27.5113 15.0968 27.5238 15.1834C27.5281 15.2134 27.5321 15.2436 27.5366 15.2735C27.5467 15.3418 27.5577 15.4097 27.5686 15.4776L23.2836 16.612L21.42 15.8488C21.2257 14.913 21.1104 13.9148 21.0879 12.8745L22.4139 14.2615ZM31.0225 2.08335C31.013 2.09287 31.0038 2.10293 30.9943 2.1125C30.9463 2.16099 30.8988 2.2103 30.8515 2.26021C30.8354 2.2772 30.8191 2.29385 30.8031 2.31104C30.7406 2.37803 30.6788 2.44624 30.6177 2.51572C30.6046 2.53062 30.5918 2.54595 30.5788 2.56094C30.5306 2.61646 30.4828 2.67261 30.4354 2.72964C30.4155 2.75366 30.3958 2.77803 30.376 2.80234C30.3348 2.85298 30.2939 2.90415 30.2534 2.95596C30.234 2.98076 30.2145 3.00547 30.1953 3.03057C30.1577 3.07949 30.1206 3.1291 30.0836 3.179L25.5923 4.07764L24.6423 3.12764C25.4674 2.45786 26.3838 2.08345 27.3334 2.08345H31.0225V2.08335ZM31.0225 22.9167H27.3333C26.7244 22.9167 26.1291 22.7623 25.5627 22.4753L29.6527 21.5222C29.7144 21.5079 29.7734 21.488 29.8295 21.4638C29.8385 21.4769 29.8473 21.4901 29.8563 21.5032C29.9111 21.583 29.9666 21.6617 30.0228 21.7392C30.0347 21.7556 30.0469 21.7714 30.0588 21.7877C30.1039 21.849 30.1493 21.9097 30.1952 21.9695C30.2145 21.9946 30.2339 22.0194 30.2534 22.0443C30.2939 22.096 30.3347 22.1471 30.3758 22.1977C30.3957 22.222 30.4155 22.2464 30.4355 22.2706C30.4827 22.3275 30.5305 22.3835 30.5786 22.4389C30.5917 22.454 30.6045 22.4695 30.6177 22.4844C30.6788 22.5539 30.7406 22.622 30.803 22.689C30.8191 22.7063 30.8355 22.723 30.8517 22.7401C30.8989 22.7899 30.9463 22.8392 30.9942 22.8875C31.0038 22.897 31.013 22.9071 31.0225 22.9167ZM35.6667 22.9167C32.3389 22.9167 29.4166 18.3245 29.4166 12.5C29.4166 11.1232 29.5801 9.81548 29.8734 8.6208C29.8794 8.60015 29.8846 8.5792 29.8893 8.55811C30.2563 7.09087 30.8196 5.79648 31.5176 4.7585C31.5437 4.72485 31.5681 4.68979 31.5899 4.65322C32.7024 3.04805 34.1418 2.08335 35.6667 2.08335C38.9944 2.08335 41.9167 6.67549 41.9167 12.5C41.9167 18.3245 38.9944 22.9167 35.6667 22.9167Z" fill="#FF1313"/>
<path d="M35.6667 4.16675C33.124 4.16675 31.5 7.95635 31.5 12.5001C31.5 17.0438 33.124 20.8334 35.6667 20.8334C38.2093 20.8334 39.8333 17.0439 39.8333 12.5001C39.8333 7.9563 38.2093 4.16675 35.6667 4.16675ZM36.919 17.2458C36.4828 18.2636 35.9898 18.7501 35.6667 18.7501C35.3435 18.7501 34.8505 18.2636 34.4143 17.2458C33.8912 16.0251 33.5833 14.3264 33.5833 12.5001C33.5833 10.6738 33.8912 8.97505 34.4143 7.75444C34.8505 6.73657 35.3435 6.2501 35.6667 6.2501C35.9898 6.2501 36.4828 6.73657 36.9189 7.75444C37.4421 8.97505 37.75 10.6738 37.75 12.5001C37.75 14.3264 37.4421 16.0251 36.919 17.2458Z" fill="#FF1313"/>
</svg>
