<svg width="122" height="28" viewBox="0 0 122 28" fill="none" xmlns="http://www.w3.org/2000/svg">
<path d="M16.8571 1L11.7857 26H5.07143L0 1H5.14286L7.10714 12.5714L8.32143 20.0714H8.53571L9.75 12.5714L11.7143 1H16.8571Z" fill="black"/>
<path d="M59.6234 5.17857L51.1592 21.8571H59.6591V26H45.9806V21.9286L54.4092 5.28571H45.9806V1H59.6234V5.17857Z" fill="black"/>
<path d="M62.2535 26V1H67.1463V26H62.2535Z" fill="black"/>
<path d="M70.5891 26V1H75.482V11.5357H75.6605L80.1248 1H85.1605L79.9463 12.9286L85.4105 26H79.982L75.732 15.0714H75.482V26H70.5891Z" fill="black"/>
<path d="M100.161 26L99.4107 22.0357H93.7679L93.0179 26H88.1607L92.9821 1H100.375L104.946 26H100.161ZM96.5179 5.64286L95.125 13.9643L94.3393 18.2143H98.8036L97.9821 13.9643L96.5893 5.64286H96.5179Z" fill="black"/>
<path d="M116.43 26H111.216V17.6786L105.93 1H110.787L113.002 8.60714L113.752 13H113.894L114.644 8.60714L116.859 1H121.716L116.43 17.6786V26Z" fill="black"/>
<mask id="path-2-outside-1_438_401" maskUnits="userSpaceOnUse" x="18" y="0.304077" width="27" height="27" fill="black">
<rect fill="white" x="18" y="0.304077" width="27" height="27"/>
<path d="M35.6667 1.30408H27.3334C24.294 1.30408 21.7179 3.64822 20.2658 7.13821C20.2646 7.14089 20.2637 7.14358 20.2625 7.14626C19.4586 9.08176 19 11.3688 19 13.8041C19 20.6359 22.607 26.3041 27.3334 26.3041H35.6667C40.393 26.3041 44 20.6359 44 13.8041C44 6.97224 40.393 1.30408 35.6667 1.30408ZM23.5897 22.1C23.062 21.4357 22.5958 20.6356 22.2129 19.7288L22.8175 19.9764C23.0274 20.0623 23.2596 20.0774 23.4789 20.0194L28.0214 18.8169C28.0215 18.8172 28.0216 18.8175 28.0217 18.8178C28.0431 18.8919 28.0649 18.9656 28.0872 19.0389C28.0976 19.0732 28.1079 19.1075 28.1185 19.1416C28.1467 19.2322 28.1756 19.3222 28.2052 19.4116C28.2099 19.426 28.2144 19.4406 28.2192 19.4549C28.2537 19.5581 28.2893 19.6605 28.3256 19.7621C28.3361 19.7914 28.347 19.8204 28.3576 19.8495C28.3843 19.9227 28.4113 19.9955 28.439 20.0678C28.4521 20.1021 28.4653 20.1363 28.4786 20.1703C28.506 20.2404 28.5338 20.31 28.5621 20.3793C28.5746 20.4098 28.5868 20.4404 28.5994 20.4707C28.6397 20.5675 28.6806 20.6637 28.7227 20.7588C28.723 20.7596 28.7233 20.7604 28.7237 20.7612C28.7429 20.8045 28.7627 20.847 28.7822 20.89L23.5897 22.1ZM23.2424 5.97795L24.5134 7.249C24.7597 7.49529 25.1128 7.60217 25.4543 7.53386L28.7083 6.88284C28.6713 6.96707 28.6351 7.05198 28.5994 7.13757C28.5869 7.1678 28.5746 7.19832 28.5622 7.22869C28.5339 7.29802 28.506 7.3677 28.4786 7.43792C28.4653 7.47195 28.4521 7.50598 28.439 7.54021C28.4114 7.61257 28.3843 7.68547 28.3576 7.75876C28.347 7.78787 28.3361 7.81677 28.3257 7.84602C28.2893 7.94768 28.2537 8.05007 28.2192 8.15339C28.2145 8.1676 28.21 8.18211 28.2053 8.19636C28.1756 8.28586 28.1467 8.37595 28.1185 8.46667C28.1079 8.50076 28.0976 8.53508 28.0872 8.56936C28.0682 8.63201 28.0493 8.69485 28.031 8.75803L24.5552 9.5344L22.4564 7.33904C22.694 6.84661 22.9575 6.39143 23.2424 5.97795ZM23.4556 11.3989C23.7078 11.6627 24.0795 11.7752 24.4356 11.6957L27.5406 11.0021C27.5392 11.0115 27.538 11.0211 27.5366 11.0305C27.5321 11.0605 27.5281 11.0906 27.5238 11.1206C27.5113 11.2073 27.4994 11.2941 27.4881 11.3814C27.483 11.4211 27.4781 11.4609 27.4732 11.5008C27.4632 11.5822 27.4538 11.6639 27.4449 11.7459C27.4407 11.7842 27.4364 11.8223 27.4325 11.8607C27.422 11.9628 27.4124 12.0653 27.4035 12.1682C27.4021 12.1845 27.4003 12.2008 27.399 12.2172C27.3891 12.3361 27.3805 12.4556 27.3728 12.5755C27.3709 12.6054 27.3693 12.6356 27.3675 12.6656L23.4958 13.6823L21.2623 11.346C21.3567 10.7076 21.4868 10.0933 21.6487 9.50876L23.4556 11.3989ZM22.4139 15.5656C22.6756 15.8393 23.0652 15.9494 23.4314 15.8532L27.3606 14.8215C27.3625 14.8571 27.3647 14.8926 27.3667 14.9282C27.3688 14.963 27.3706 14.9979 27.3728 15.0326C27.3805 15.1525 27.3891 15.272 27.399 15.3909C27.4004 15.4073 27.4021 15.4236 27.4035 15.4399C27.4123 15.5428 27.422 15.6453 27.4325 15.7474C27.4364 15.7858 27.4407 15.824 27.4449 15.8623C27.4538 15.9442 27.4632 16.026 27.4732 16.1073C27.4781 16.1472 27.483 16.187 27.4881 16.2268C27.4994 16.314 27.5113 16.4009 27.5238 16.4875C27.5281 16.5175 27.5321 16.5477 27.5366 16.5776C27.5467 16.6459 27.5577 16.7138 27.5686 16.7817L23.2836 17.916L21.42 17.1529C21.2257 16.2171 21.1104 15.2189 21.0879 14.1785L22.4139 15.5656ZM31.0225 3.38743C31.013 3.39695 31.0038 3.40701 30.9943 3.41658C30.9463 3.46506 30.8988 3.51438 30.8515 3.56428C30.8354 3.58127 30.8191 3.59792 30.8031 3.61511C30.7406 3.6821 30.6788 3.75032 30.6177 3.8198C30.6046 3.83469 30.5918 3.85002 30.5788 3.86501C30.5306 3.92053 30.4828 3.97668 30.4354 4.03372C30.4155 4.05774 30.3958 4.0821 30.376 4.10642C30.3348 4.15706 30.2939 4.20823 30.2534 4.26003C30.234 4.28484 30.2145 4.30955 30.1953 4.33464C30.1577 4.38357 30.1206 4.43318 30.0836 4.48308L25.5923 5.38171L24.6423 4.43171C25.4674 3.76194 26.3838 3.38752 27.3334 3.38752H31.0225V3.38743ZM31.0225 24.2207H27.3333C26.7244 24.2207 26.1291 24.0663 25.5627 23.7794L29.6527 22.8263C29.7144 22.8119 29.7734 22.7921 29.8295 22.7678C29.8385 22.781 29.8473 22.7942 29.8563 22.8073C29.9111 22.887 29.9666 22.9657 30.0228 23.0432C30.0347 23.0596 30.0469 23.0755 30.0588 23.0918C30.1039 23.1531 30.1493 23.2137 30.1952 23.2736C30.2145 23.2987 30.2339 23.3235 30.2534 23.3484C30.2939 23.4001 30.3347 23.4512 30.3758 23.5017C30.3957 23.5261 30.4155 23.5505 30.4355 23.5746C30.4827 23.6316 30.5305 23.6876 30.5786 23.743C30.5917 23.7581 30.6045 23.7736 30.6177 23.7885C30.6788 23.858 30.7406 23.9261 30.803 23.9931C30.8191 24.0104 30.8355 24.0271 30.8517 24.0442C30.8989 24.094 30.9463 24.1432 30.9942 24.1916C31.0038 24.2011 31.013 24.2112 31.0225 24.2207ZM35.6667 24.2207C32.3389 24.2207 29.4166 19.6286 29.4166 13.8041C29.4166 12.4273 29.5801 11.1196 29.8734 9.92488C29.8794 9.90422 29.8846 9.88328 29.8893 9.86218C30.2563 8.39495 30.8196 7.10056 31.5176 6.06257C31.5437 6.02893 31.5681 5.99387 31.5899 5.9573C32.7024 4.35212 34.1418 3.38743 35.6667 3.38743C38.9944 3.38743 41.9167 7.97957 41.9167 13.8041C41.9167 19.6286 38.9944 24.2207 35.6667 24.2207Z"/>
</mask>
<path d="M35.6667 1.30408H27.3334C24.294 1.30408 21.7179 3.64822 20.2658 7.13821C20.2646 7.14089 20.2637 7.14358 20.2625 7.14626C19.4586 9.08176 19 11.3688 19 13.8041C19 20.6359 22.607 26.3041 27.3334 26.3041H35.6667C40.393 26.3041 44 20.6359 44 13.8041C44 6.97224 40.393 1.30408 35.6667 1.30408ZM23.5897 22.1C23.062 21.4357 22.5958 20.6356 22.2129 19.7288L22.8175 19.9764C23.0274 20.0623 23.2596 20.0774 23.4789 20.0194L28.0214 18.8169C28.0215 18.8172 28.0216 18.8175 28.0217 18.8178C28.0431 18.8919 28.0649 18.9656 28.0872 19.0389C28.0976 19.0732 28.1079 19.1075 28.1185 19.1416C28.1467 19.2322 28.1756 19.3222 28.2052 19.4116C28.2099 19.426 28.2144 19.4406 28.2192 19.4549C28.2537 19.5581 28.2893 19.6605 28.3256 19.7621C28.3361 19.7914 28.347 19.8204 28.3576 19.8495C28.3843 19.9227 28.4113 19.9955 28.439 20.0678C28.4521 20.1021 28.4653 20.1363 28.4786 20.1703C28.506 20.2404 28.5338 20.31 28.5621 20.3793C28.5746 20.4098 28.5868 20.4404 28.5994 20.4707C28.6397 20.5675 28.6806 20.6637 28.7227 20.7588C28.723 20.7596 28.7233 20.7604 28.7237 20.7612C28.7429 20.8045 28.7627 20.847 28.7822 20.89L23.5897 22.1ZM23.2424 5.97795L24.5134 7.249C24.7597 7.49529 25.1128 7.60217 25.4543 7.53386L28.7083 6.88284C28.6713 6.96707 28.6351 7.05198 28.5994 7.13757C28.5869 7.1678 28.5746 7.19832 28.5622 7.22869C28.5339 7.29802 28.506 7.3677 28.4786 7.43792C28.4653 7.47195 28.4521 7.50598 28.439 7.54021C28.4114 7.61257 28.3843 7.68547 28.3576 7.75876C28.347 7.78787 28.3361 7.81677 28.3257 7.84602C28.2893 7.94768 28.2537 8.05007 28.2192 8.15339C28.2145 8.1676 28.21 8.18211 28.2053 8.19636C28.1756 8.28586 28.1467 8.37595 28.1185 8.46667C28.1079 8.50076 28.0976 8.53508 28.0872 8.56936C28.0682 8.63201 28.0493 8.69485 28.031 8.75803L24.5552 9.5344L22.4564 7.33904C22.694 6.84661 22.9575 6.39143 23.2424 5.97795ZM23.4556 11.3989C23.7078 11.6627 24.0795 11.7752 24.4356 11.6957L27.5406 11.0021C27.5392 11.0115 27.538 11.0211 27.5366 11.0305C27.5321 11.0605 27.5281 11.0906 27.5238 11.1206C27.5113 11.2073 27.4994 11.2941 27.4881 11.3814C27.483 11.4211 27.4781 11.4609 27.4732 11.5008C27.4632 11.5822 27.4538 11.6639 27.4449 11.7459C27.4407 11.7842 27.4364 11.8223 27.4325 11.8607C27.422 11.9628 27.4124 12.0653 27.4035 12.1682C27.4021 12.1845 27.4003 12.2008 27.399 12.2172C27.3891 12.3361 27.3805 12.4556 27.3728 12.5755C27.3709 12.6054 27.3693 12.6356 27.3675 12.6656L23.4958 13.6823L21.2623 11.346C21.3567 10.7076 21.4868 10.0933 21.6487 9.50876L23.4556 11.3989ZM22.4139 15.5656C22.6756 15.8393 23.0652 15.9494 23.4314 15.8532L27.3606 14.8215C27.3625 14.8571 27.3647 14.8926 27.3667 14.9282C27.3688 14.963 27.3706 14.9979 27.3728 15.0326C27.3805 15.1525 27.3891 15.272 27.399 15.3909C27.4004 15.4073 27.4021 15.4236 27.4035 15.4399C27.4123 15.5428 27.422 15.6453 27.4325 15.7474C27.4364 15.7858 27.4407 15.824 27.4449 15.8623C27.4538 15.9442 27.4632 16.026 27.4732 16.1073C27.4781 16.1472 27.483 16.187 27.4881 16.2268C27.4994 16.314 27.5113 16.4009 27.5238 16.4875C27.5281 16.5175 27.5321 16.5477 27.5366 16.5776C27.5467 16.6459 27.5577 16.7138 27.5686 16.7817L23.2836 17.916L21.42 17.1529C21.2257 16.2171 21.1104 15.2189 21.0879 14.1785L22.4139 15.5656ZM31.0225 3.38743C31.013 3.39695 31.0038 3.40701 30.9943 3.41658C30.9463 3.46506 30.8988 3.51438 30.8515 3.56428C30.8354 3.58127 30.8191 3.59792 30.8031 3.61511C30.7406 3.6821 30.6788 3.75032 30.6177 3.8198C30.6046 3.83469 30.5918 3.85002 30.5788 3.86501C30.5306 3.92053 30.4828 3.97668 30.4354 4.03372C30.4155 4.05774 30.3958 4.0821 30.376 4.10642C30.3348 4.15706 30.2939 4.20823 30.2534 4.26003C30.234 4.28484 30.2145 4.30955 30.1953 4.33464C30.1577 4.38357 30.1206 4.43318 30.0836 4.48308L25.5923 5.38171L24.6423 4.43171C25.4674 3.76194 26.3838 3.38752 27.3334 3.38752H31.0225V3.38743ZM31.0225 24.2207H27.3333C26.7244 24.2207 26.1291 24.0663 25.5627 23.7794L29.6527 22.8263C29.7144 22.8119 29.7734 22.7921 29.8295 22.7678C29.8385 22.781 29.8473 22.7942 29.8563 22.8073C29.9111 22.887 29.9666 22.9657 30.0228 23.0432C30.0347 23.0596 30.0469 23.0755 30.0588 23.0918C30.1039 23.1531 30.1493 23.2137 30.1952 23.2736C30.2145 23.2987 30.2339 23.3235 30.2534 23.3484C30.2939 23.4001 30.3347 23.4512 30.3758 23.5017C30.3957 23.5261 30.4155 23.5505 30.4355 23.5746C30.4827 23.6316 30.5305 23.6876 30.5786 23.743C30.5917 23.7581 30.6045 23.7736 30.6177 23.7885C30.6788 23.858 30.7406 23.9261 30.803 23.9931C30.8191 24.0104 30.8355 24.0271 30.8517 24.0442C30.8989 24.094 30.9463 24.1432 30.9942 24.1916C31.0038 24.2011 31.013 24.2112 31.0225 24.2207ZM35.6667 24.2207C32.3389 24.2207 29.4166 19.6286 29.4166 13.8041C29.4166 12.4273 29.5801 11.1196 29.8734 9.92488C29.8794 9.90422 29.8846 9.88328 29.8893 9.86218C30.2563 8.39495 30.8196 7.10056 31.5176 6.06257C31.5437 6.02893 31.5681 5.99387 31.5899 5.9573C32.7024 4.35212 34.1418 3.38743 35.6667 3.38743C38.9944 3.38743 41.9167 7.97957 41.9167 13.8041C41.9167 19.6286 38.9944 24.2207 35.6667 24.2207Z" fill="#FF1313"/>
<path d="M35.6667 1.30408H27.3334C24.294 1.30408 21.7179 3.64822 20.2658 7.13821C20.2646 7.14089 20.2637 7.14358 20.2625 7.14626C19.4586 9.08176 19 11.3688 19 13.8041C19 20.6359 22.607 26.3041 27.3334 26.3041H35.6667C40.393 26.3041 44 20.6359 44 13.8041C44 6.97224 40.393 1.30408 35.6667 1.30408ZM23.5897 22.1C23.062 21.4357 22.5958 20.6356 22.2129 19.7288L22.8175 19.9764C23.0274 20.0623 23.2596 20.0774 23.4789 20.0194L28.0214 18.8169C28.0215 18.8172 28.0216 18.8175 28.0217 18.8178C28.0431 18.8919 28.0649 18.9656 28.0872 19.0389C28.0976 19.0732 28.1079 19.1075 28.1185 19.1416C28.1467 19.2322 28.1756 19.3222 28.2052 19.4116C28.2099 19.426 28.2144 19.4406 28.2192 19.4549C28.2537 19.5581 28.2893 19.6605 28.3256 19.7621C28.3361 19.7914 28.347 19.8204 28.3576 19.8495C28.3843 19.9227 28.4113 19.9955 28.439 20.0678C28.4521 20.1021 28.4653 20.1363 28.4786 20.1703C28.506 20.2404 28.5338 20.31 28.5621 20.3793C28.5746 20.4098 28.5868 20.4404 28.5994 20.4707C28.6397 20.5675 28.6806 20.6637 28.7227 20.7588C28.723 20.7596 28.7233 20.7604 28.7237 20.7612C28.7429 20.8045 28.7627 20.847 28.7822 20.89L23.5897 22.1ZM23.2424 5.97795L24.5134 7.249C24.7597 7.49529 25.1128 7.60217 25.4543 7.53386L28.7083 6.88284C28.6713 6.96707 28.6351 7.05198 28.5994 7.13757C28.5869 7.1678 28.5746 7.19832 28.5622 7.22869C28.5339 7.29802 28.506 7.3677 28.4786 7.43792C28.4653 7.47195 28.4521 7.50598 28.439 7.54021C28.4114 7.61257 28.3843 7.68547 28.3576 7.75876C28.347 7.78787 28.3361 7.81677 28.3257 7.84602C28.2893 7.94768 28.2537 8.05007 28.2192 8.15339C28.2145 8.1676 28.21 8.18211 28.2053 8.19636C28.1756 8.28586 28.1467 8.37595 28.1185 8.46667C28.1079 8.50076 28.0976 8.53508 28.0872 8.56936C28.0682 8.63201 28.0493 8.69485 28.031 8.75803L24.5552 9.5344L22.4564 7.33904C22.694 6.84661 22.9575 6.39143 23.2424 5.97795ZM23.4556 11.3989C23.7078 11.6627 24.0795 11.7752 24.4356 11.6957L27.5406 11.0021C27.5392 11.0115 27.538 11.0211 27.5366 11.0305C27.5321 11.0605 27.5281 11.0906 27.5238 11.1206C27.5113 11.2073 27.4994 11.2941 27.4881 11.3814C27.483 11.4211 27.4781 11.4609 27.4732 11.5008C27.4632 11.5822 27.4538 11.6639 27.4449 11.7459C27.4407 11.7842 27.4364 11.8223 27.4325 11.8607C27.422 11.9628 27.4124 12.0653 27.4035 12.1682C27.4021 12.1845 27.4003 12.2008 27.399 12.2172C27.3891 12.3361 27.3805 12.4556 27.3728 12.5755C27.3709 12.6054 27.3693 12.6356 27.3675 12.6656L23.4958 13.6823L21.2623 11.346C21.3567 10.7076 21.4868 10.0933 21.6487 9.50876L23.4556 11.3989ZM22.4139 15.5656C22.6756 15.8393 23.0652 15.9494 23.4314 15.8532L27.3606 14.8215C27.3625 14.8571 27.3647 14.8926 27.3667 14.9282C27.3688 14.963 27.3706 14.9979 27.3728 15.0326C27.3805 15.1525 27.3891 15.272 27.399 15.3909C27.4004 15.4073 27.4021 15.4236 27.4035 15.4399C27.4123 15.5428 27.422 15.6453 27.4325 15.7474C27.4364 15.7858 27.4407 15.824 27.4449 15.8623C27.4538 15.9442 27.4632 16.026 27.4732 16.1073C27.4781 16.1472 27.483 16.187 27.4881 16.2268C27.4994 16.314 27.5113 16.4009 27.5238 16.4875C27.5281 16.5175 27.5321 16.5477 27.5366 16.5776C27.5467 16.6459 27.5577 16.7138 27.5686 16.7817L23.2836 17.916L21.42 17.1529C21.2257 16.2171 21.1104 15.2189 21.0879 14.1785L22.4139 15.5656ZM31.0225 3.38743C31.013 3.39695 31.0038 3.40701 30.9943 3.41658C30.9463 3.46506 30.8988 3.51438 30.8515 3.56428C30.8354 3.58127 30.8191 3.59792 30.8031 3.61511C30.7406 3.6821 30.6788 3.75032 30.6177 3.8198C30.6046 3.83469 30.5918 3.85002 30.5788 3.86501C30.5306 3.92053 30.4828 3.97668 30.4354 4.03372C30.4155 4.05774 30.3958 4.0821 30.376 4.10642C30.3348 4.15706 30.2939 4.20823 30.2534 4.26003C30.234 4.28484 30.2145 4.30955 30.1953 4.33464C30.1577 4.38357 30.1206 4.43318 30.0836 4.48308L25.5923 5.38171L24.6423 4.43171C25.4674 3.76194 26.3838 3.38752 27.3334 3.38752H31.0225V3.38743ZM31.0225 24.2207H27.3333C26.7244 24.2207 26.1291 24.0663 25.5627 23.7794L29.6527 22.8263C29.7144 22.8119 29.7734 22.7921 29.8295 22.7678C29.8385 22.781 29.8473 22.7942 29.8563 22.8073C29.9111 22.887 29.9666 22.9657 30.0228 23.0432C30.0347 23.0596 30.0469 23.0755 30.0588 23.0918C30.1039 23.1531 30.1493 23.2137 30.1952 23.2736C30.2145 23.2987 30.2339 23.3235 30.2534 23.3484C30.2939 23.4001 30.3347 23.4512 30.3758 23.5017C30.3957 23.5261 30.4155 23.5505 30.4355 23.5746C30.4827 23.6316 30.5305 23.6876 30.5786 23.743C30.5917 23.7581 30.6045 23.7736 30.6177 23.7885C30.6788 23.858 30.7406 23.9261 30.803 23.9931C30.8191 24.0104 30.8355 24.0271 30.8517 24.0442C30.8989 24.094 30.9463 24.1432 30.9942 24.1916C31.0038 24.2011 31.013 24.2112 31.0225 24.2207ZM35.6667 24.2207C32.3389 24.2207 29.4166 19.6286 29.4166 13.8041C29.4166 12.4273 29.5801 11.1196 29.8734 9.92488C29.8794 9.90422 29.8846 9.88328 29.8893 9.86218C30.2563 8.39495 30.8196 7.10056 31.5176 6.06257C31.5437 6.02893 31.5681 5.99387 31.5899 5.9573C32.7024 4.35212 34.1418 3.38743 35.6667 3.38743C38.9944 3.38743 41.9167 7.97957 41.9167 13.8041C41.9167 19.6286 38.9944 24.2207 35.6667 24.2207Z" stroke="white" stroke-width="2" mask="url(#path-2-outside-1_438_401)"/>
<path d="M36.4594 9.25549L36.4594 9.25546C36.255 8.77857 36.0479 8.45212 35.8744 8.25425C35.7706 8.13577 35.7002 8.08665 35.6667 8.06665C35.6331 8.08665 35.5627 8.13578 35.4589 8.25426C35.2854 8.45213 35.0783 8.77858 34.8739 9.25547L36.4594 9.25549ZM36.4594 9.25549C36.949 10.3978 37.25 12.0256 37.25 13.8042M36.4594 9.25549L37.25 13.8042M35.8745 19.3541C36.0479 19.1562 36.255 18.8298 36.4594 18.3529L35.8745 19.3541ZM35.8745 19.3541C35.7706 19.4726 35.7002 19.5217 35.6667 19.5417M35.8745 19.3541L35.6667 19.5417M35.6667 19.5417C35.6331 19.5217 35.5627 19.4726 35.4588 19.3541C35.2854 19.1562 35.0783 18.8298 34.8739 18.3529L35.6667 19.5417ZM37.25 13.8042C37.25 15.5828 36.949 17.2106 36.4594 18.3529L37.25 13.8042ZM35.6667 4.97083C34.1087 4.97083 32.9354 6.13385 32.1787 7.71809C31.4139 9.31912 31 11.4812 31 13.8042C31 16.1272 31.4139 18.2892 32.1787 19.8903C32.9354 21.4745 34.1087 22.6375 35.6667 22.6375C37.2246 22.6375 38.3979 21.4745 39.1546 19.8903C39.9194 18.2892 40.3333 16.1272 40.3333 13.8042C40.3333 11.4812 39.9194 9.3191 39.1546 7.71807C38.3979 6.13383 37.2246 4.97083 35.6667 4.97083ZM34.8739 18.3529C34.3843 17.2105 34.0833 15.5827 34.0833 13.8042C34.0833 12.0256 34.3843 10.3978 34.8739 9.25548V18.3529Z" fill="#FF1313" stroke="white"/>
</svg>
